<svg width="133" height="32" fill="none" xmlns="http://www.w3.org/2000/svg"><path fill-rule="evenodd" clip-rule="evenodd" d="M29.426 6.4h2.797c.345 0 .625.271.625.605v9.958l-.013.158-.206 1.2a.14.14 0 00.14.16.14.14 0 00.12-.065c.43-.667 1.04-1.217 1.829-1.652.814-.448 1.725-.672 2.735-.672 1.956 0 3.404.558 4.341 1.672.938 1.116 1.406 2.639 1.406 4.569v8.263c0 .334-.28.604-.625.604h-2.797a.615.615 0 01-.625-.604v-7.785c0-1.015-.248-1.787-.742-2.314-.495-.527-1.185-.792-2.07-.792-.557 0-1.051.115-1.484.344a3.262 3.262 0 00-1.097.94 4.287 4.287 0 00-.68 1.389 5.987 5.987 0 00-.232 1.686v6.532c0 .334-.28.604-.625.604h-2.797a.615.615 0 01-.626-.604V7.005c0-.334.28-.605.626-.605zM52.8 27.677c.513 0 1.01-.092 1.492-.277a3.81 3.81 0 001.277-.8c.37-.35.662-.776.877-1.282.216-.504.323-1.077.323-1.718 0-.64-.107-1.212-.323-1.718a3.782 3.782 0 00-.877-1.28 3.832 3.832 0 00-1.277-.802 4.152 4.152 0 00-1.492-.276c-.534 0-1.036.092-1.507.276a3.781 3.781 0 00-2.139 2.082c-.215.506-.323 1.078-.323 1.719 0 .64.108 1.213.323 1.717a3.773 3.773 0 002.139 2.082c.47.185.973.277 1.508.277zM52.8 16c1.17 0 2.241.19 3.216.569a7.68 7.68 0 012.523 1.571 7.149 7.149 0 011.66 2.403c.401.931.601 1.951.601 3.058 0 1.106-.2 2.125-.6 3.056a7.131 7.131 0 01-1.661 2.402 7.643 7.643 0 01-2.523 1.573c-.975.38-2.047.569-3.215.569-1.17 0-2.242-.19-3.216-.57a7.638 7.638 0 01-2.523-1.572 7.13 7.13 0 01-1.661-2.402c-.4-.931-.6-1.95-.6-3.056 0-1.107.2-2.127.6-3.058.4-.932.953-1.733 1.66-2.403a7.675 7.675 0 012.524-1.571c.974-.38 2.047-.569 3.215-.569z" fill="#4F4F4F"/><path fill-rule="evenodd" clip-rule="evenodd" d="M111.415 16.131a1.63 1.63 0 00-.138.003c.034-.002.068-.007.102-.007.012 0 .024.004.036.004zm-.975.337zm.758-.328zm-.236.047zm-.295.125zm-.59.597zm.166-.244zm-.586 1.435zm-.089.279l-.031.094.031-.094zm-.1.305l-.031.096.031-.096zm-.111.334zm-6.815-2.669zm-.064-.005c-.066-.003-.131 0-.195.007.044-.004.087-.011.131-.011.021 0 .043.003.064.004zm-.278.014zm-.264.064zm-.303.149zm-.219.169zm-.322.429zm.142-.23z" fill="#fff"/><path fill-rule="evenodd" clip-rule="evenodd" d="M81.664 22.64v5.064c.915-.253 2.356-.789 3.936-1.865v-3.92c0-.861-.11-1.658-.33-2.389-.22-.73-.546-1.356-.977-1.877a4.367 4.367 0 00-1.638-1.216c-.66-.29-1.442-.437-2.343-.437-1.203 0-2.225.267-3.066.797a6.494 6.494 0 00-1.415 1.185.617.617 0 01-.97-.05 4.684 4.684 0 00-1.192-1.15c-.761-.52-1.703-.782-2.824-.782-.962 0-1.839.221-2.63.662a5.167 5.167 0 00-1.833 1.672.156.156 0 01-.286-.086V17.09a.608.608 0 00-.608-.608h-2.48a.608.608 0 00-.608.608v13.503c0 .335.273.608.608.608h2.72a.608.608 0 00.61-.608V24.05c0-.62.069-1.201.209-1.742.14-.54.34-1.006.601-1.397.26-.39.581-.7.962-.93.38-.23.821-.346 1.322-.346 1.723 0 2.585 1.001 2.585 3.003v7.954c0 .335.272.608.608.608h2.72a.608.608 0 00.609-.608V24.05c0-.62.075-1.201.226-1.742.15-.54.36-1.006.63-1.397.27-.39.606-.7 1.007-.93.4-.23.861-.346 1.382-.346 1.643 0 2.465 1.001 2.465 3.003z" fill="#4F4F4F"/><path fill-rule="evenodd" clip-rule="evenodd" d="M93.706 31.243c.097.007.196.008.296.007l-.053.002c-.082 0-.163-.003-.243-.01zm2.505-.671zm-.386.202zm-.38.166zm-.373.13zm-.366.096zm-.356.06c-.064.008-.126.01-.189.015.063-.004.125-.008.189-.015zm2.043-.759zm.392-.253zm.395-.287c.072-.055.142-.113.214-.172-.072.059-.142.117-.214.172zm.397-.322zm.398-.358zm.397-.39zm.397-.426c.08-.09.159-.183.238-.276-.08.093-.159.187-.238.276zm.394-.46c.087-.106.174-.218.261-.33-.087.112-.174.224-.261.33zm.391-.494z" fill="#fff"/><path fill-rule="evenodd" clip-rule="evenodd" d="M114.996 27.712c-.028-.02-.059-.033-.088-.051.029.018.06.031.088.051zm-.258-.147c-.036-.016-.074-.025-.111-.038.037.013.075.022.111.038zm-.279-.09c-.04-.01-.081-.012-.122-.017.041.005.082.007.122.017zm-.288-.034a1.59 1.59 0 00-.154.009c.041-.004.083-.012.124-.012l.03.003zm-.795.212zm.522-.193c-.054.009-.107.025-.16.04.053-.015.106-.031.16-.04zm-.268.07c-.058.022-.112.052-.168.08.056-.028.11-.058.168-.08zm-.854.511zm-.346 2.941l-.056-.008.056.008zm.639-.002a2.113 2.113 0 01-.094.01l.094-.01zm-.207-2.963l.038-.015-.038.015zm.112-.059c.013-.008.025-.014.039-.024-.014.01-.026.016-.039.024zm-.847 2.977l-.039-.007.039.007zm-.286-.072c-.018-.006-.034-.01-.052-.017l.052.017zm-2.602-11.497l-.057.166.057-.166zm-.129.374l-.053.152.053-.152zm-.286.798l-.066.18.066-.18zm.147-.404zm-3.915 7.506c.037-.034.075-.069.112-.106-.037.037-.075.072-.112.107zm-.593.426zm4.208-7.114l-.076.202.076-.202zm-.162.43zm-.172.438l-.073.185.073-.185zm-.177.44l-.078.189.078-.189zm-.184.443zm-.188.441zm-.196.441l-.089.193.089-.193zm-.202.435c-.03.066-.062.13-.092.194.03-.064.062-.128.092-.194zm-.206.427l-.095.19.095-.19zm-.211.418c-.031.062-.064.123-.096.183.032-.06.065-.12.096-.183zm-.214.405l-.1.178.1-.179zm-.219.388zm-.222.372l-.105.165.105-.166zm-.225.35l-.107.156.107-.155zm-.229.33zm-.23.303zm-.232.277zm-.468.457zm-.235.178zm-.706.297zm.234-.057zm-.788 3.012c.137.012.273.015.407.014l-.046.002c-.119 0-.239-.005-.361-.016zm1.664-.206zm-.408.117zm-.419.074c-.078.01-.158.013-.238.018.08-.005.16-.009.238-.018zm1.013-.261zm.393-.177zm.383-.214zm.373-.253zm.362-.286a7.237 7.237 0 000 .001zm.352-.319zm.343-.349zm1.273-1.663zm-.941 1.285zm.323-.405c.061-.08.12-.16.179-.243-.059.082-.118.164-.179.243zm.314-.429c.062-.088.122-.18.183-.27-.061.09-.121.182-.183.27zm.599-.923zm3.662 3.83l.08-.002c-.019 0-.038.003-.055.003l-.025-.001zm.522-.041zm.321-.066l.042-.01-.042.01zm.321-.101l.078-.033-.078.032zm.283-.123l.101-.052-.101.052zm.29-.157l.104-.064a2.76 2.76 0 01-.104.064zm.301-.2l.092-.068c-.031.024-.062.044-.092.067z" fill="#000"/><path fill-rule="evenodd" clip-rule="evenodd" d="M119.774 31.2a1.43 1.43 0 01-.998-.407c-6.158-5.935-4.044-13.702-3.952-14.03.229-.805 1.042-1.266 1.82-1.029.774.236 1.219 1.077.994 1.88-.067.242-1.505 5.697 2.423 10.208 1.091-.752 3.066-2.7 3.799-7.206-1.115-.603-1.583-1.48-1.776-2.048-.391-1.148-.159-2.498.578-3.36.553-.646 1.328-.93 2.073-.758 1.998.462 2.26 3.087 2.295 3.792 1.541-.045 2.829-.704 2.845-.712.721-.375 1.602-.076 1.966.67.365.746.082 1.656-.637 2.037-.095.05-2.061 1.095-4.481 1.042-1.365 8.005-6.263 9.768-6.492 9.846-.15.05-.304.075-.457.075z" fill="#DC1C8A"/><path fill-rule="evenodd" clip-rule="evenodd" d="M94.225 2.995c-.111.025-.47-.002-.935.551-1.497 1.782-2.643 7.392-1.346 17.506a23.754 23.754 0 002.031-4.529C96.4 9.261 96.092 5.039 94.997 3.51c-.17-.235-.44-.515-.772-.515zM81.485 32a1.49 1.49 0 01-1.476-1.335 1.495 1.495 0 011.311-1.65c.26-.032 4.352-.585 8.111-4.584C87.633 13.27 88.21 4.958 91.02 1.612 92.134.285 93.37.003 94.213 0h.012c1.24 0 2.37.624 3.182 1.758 2.037 2.845 1.82 8.427-.614 15.72-1.113 3.336-2.605 5.91-4.22 7.896.341 1.74 1.03 3.27 1.57 3.311h.023c.909 0 4.829-2.654 7.086-10.973l.013-.046a1.484 1.484 0 011.824-1.049 1.498 1.498 0 011.043 1.838l-.007.027c-.863 3.195-1.599 8.356-.545 9.884.135.195.25.24.415.255 2.528.247 5.294-7.998 6.078-10.524.095-.302.165-.529.211-.66.325-.936 1.154-1.2 1.787-1.05 1.333.317 1.182 1.516 1.023 2.787-.883 7.026-.392 8.781-.091 9.218.027.01.054.023.081.035.08.014.228-.036.424-.218a1.479 1.479 0 012.1.088 1.504 1.504 0 01-.088 2.116c-1.363 1.264-2.825 1.11-3.595.773-1.378-.464-2.041-1.9-2.239-4.145-1.554 2.775-3.504 4.782-5.956 4.563-1.072-.097-1.968-.626-2.592-1.53-.503-.73-.792-1.69-.934-2.756-2.11 3.012-4.461 4.496-6.282 4.353-2.032-.154-3.155-1.993-3.77-3.793-4.122 3.575-8.232 4.084-8.504 4.113a1.484 1.484 0 01-.163.01zM13.2 17.75c-.2.415-.337.936-.223 1.505l.01.048c.033.215.125.478.213.637.089-.16.18-.424.216-.642l.007-.043c.114-.57-.022-1.09-.223-1.505zm-6.394 4.834c.21.194 2.747 2.498 6.467 4.435 3.824-2.005 6.286-4.4 6.32-4.433l.098-.1c.33-.34.674-.693.88-1.058.34-.6.52-1.285.52-1.98 0-2.223-1.815-4.032-4.047-4.032-.841 0-1.724.294-2.46.793.73 1.064 1.008 2.257.784 3.409-.187 1.194-.925 2.39-2.166 2.39v-1.97h-.003v1.97c-1.24 0-1.98-1.196-2.166-2.39-.223-1.152.054-2.345.784-3.41-.736-.498-1.62-.792-2.46-.792-2.233 0-4.048 1.809-4.048 4.033 0 .694.18 1.38.52 1.98.207.364.55.716.882 1.057l.095.098zM13.2 2.768c-.287 0-.574.1-.803.3l-10.003 8.71a1.21 1.21 0 00-.416.914v11.642c0 1.534.7 2.95 1.922 3.888a4.805 4.805 0 004.173.847 23.452 23.452 0 002.982-1.01c-3.341-1.93-5.484-3.928-5.621-4.056l-.143-.146c-.399-.41-.85-.874-1.183-1.46a5.987 5.987 0 01-.776-2.948c0-3.31 2.702-6.003 6.024-6.003 1.354 0 2.734.49 3.845 1.327 1.11-.838 2.49-1.327 3.843-1.327 3.322 0 6.025 2.693 6.025 6.003a5.986 5.986 0 01-.776 2.948c-.332.586-.784 1.05-1.183 1.46l-.11.114c-.144.142-2.209 2.15-5.516 4.084.854.354 1.75.673 2.678.934 1.504.424 3.08.13 4.323-.806a4.824 4.824 0 001.938-3.884V12.692c0-.35-.152-.684-.417-.915l-10.003-8.71a1.217 1.217 0 00-.803-.299zM6.837 31.2a6.787 6.787 0 01-4.144-1.418A6.821 6.821 0 010 24.334V12.692c0-.92.399-1.793 1.093-2.398l10.003-8.71a3.216 3.216 0 014.209 0l10.003 8.71a3.18 3.18 0 011.093 2.398V24.3a6.774 6.774 0 01-2.724 5.455 6.872 6.872 0 01-6.053 1.13 27.175 27.175 0 01-4.35-1.655 26.46 26.46 0 01-4.696 1.745 6.857 6.857 0 01-1.742.226z" fill="#DC1C8A"/></svg>